<svg width="242" height="58" viewBox="0 0 242 58" fill="none" xmlns="http://www.w3.org/2000/svg">
<path d="M82.027 26.1864C79.7948 26.1864 77.9818 25.9712 76.5881 25.5407C75.2057 25.0989 74.1462 24.4871 73.4097 23.7054C72.6732 22.9238 72.1689 22.0061 71.897 20.9525C71.625 19.899 71.4891 18.7548 71.4891 17.5199V9.14231C71.4891 7.87349 71.6194 6.70096 71.88 5.62473C72.1519 4.53717 72.6505 3.59122 73.3757 2.78688C74.1122 1.98253 75.1774 1.35945 76.5711 0.91763C77.9648 0.464479 79.7835 0.237904 82.027 0.237904C84.1686 0.237904 85.891 0.458815 87.194 0.900637C88.5084 1.33113 89.5056 1.94288 90.1854 2.7359C90.8653 3.52891 91.3242 4.46353 91.5622 5.53977C91.8001 6.60467 91.9191 7.77153 91.9191 9.04035V9.34623L86.9731 9.924V8.64951C86.9731 7.47132 86.8258 6.56502 86.5312 5.93061C86.2365 5.28487 85.7323 4.83738 85.0185 4.58815C84.3046 4.32759 83.3074 4.19731 82.027 4.19731C80.7806 4.19731 79.7495 4.32192 78.9336 4.57116C78.1291 4.80906 77.5286 5.24522 77.132 5.87963C76.7354 6.50271 76.5371 7.39202 76.5371 8.54755V18.0297C76.5371 19.1739 76.7354 20.0519 77.132 20.6637C77.5286 21.2641 78.1291 21.6776 78.9336 21.9042C79.7495 22.1194 80.7863 22.227 82.044 22.227C83.3244 22.227 84.3216 22.1194 85.0354 21.9042C85.7493 21.6776 86.2479 21.2584 86.5312 20.6467C86.8258 20.0236 86.9731 19.1173 86.9731 17.9278V17.1291H91.9191V17.5879C91.9191 18.8227 91.8058 19.9613 91.5792 21.0035C91.3526 22.0458 90.905 22.9577 90.2364 23.7394C89.5679 24.5098 88.5764 25.1102 87.262 25.5407C85.9476 25.9712 84.2026 26.1864 82.027 26.1864Z" fill="#CCB1ED" fill-opacity="0.87"/>
<path d="M96.8142 7.49398H101.437V9.6691C101.709 9.19329 102.185 8.77413 102.865 8.41161C103.556 8.03776 104.344 7.74887 105.228 7.54496C106.111 7.32971 106.995 7.22209 107.879 7.22209L107.777 11.1475C107.188 11.1815 106.548 11.2551 105.856 11.3684C105.165 11.4817 104.497 11.6346 103.851 11.8272C103.216 12.0198 102.678 12.2577 102.236 12.5409C101.794 12.8242 101.528 13.147 101.437 13.5096V25.7446H96.8142V7.49398Z" fill="#CCB1ED" fill-opacity="0.87"/>
<path d="M118.264 26.1355C116.349 26.1355 114.808 25.8976 113.641 25.4217C112.485 24.9346 111.647 24.2492 111.125 23.3656C110.604 22.4819 110.344 21.434 110.344 20.2218V13.0337C110.344 11.7876 110.655 10.7227 111.278 9.83903C111.902 8.95539 112.802 8.28133 113.981 7.81685C115.171 7.34104 116.598 7.10313 118.264 7.10313C119.93 7.10313 121.352 7.34104 122.53 7.81685C123.709 8.28133 124.609 8.95539 125.233 9.83903C125.867 10.7227 126.184 11.7876 126.184 13.0337V20.2218C126.184 21.4227 125.935 22.4706 125.437 23.3656C124.938 24.2492 124.111 24.9346 122.955 25.4217C121.811 25.8976 120.247 26.1355 118.264 26.1355ZM118.264 22.9238C119.25 22.9238 120.043 22.7425 120.644 22.38C121.255 22.0061 121.561 21.3547 121.561 20.4258V12.8298C121.561 11.9009 121.272 11.2551 120.695 10.8926C120.117 10.5188 119.306 10.3318 118.264 10.3318C117.267 10.3318 116.468 10.5188 115.867 10.8926C115.267 11.2551 114.967 11.9009 114.967 12.8298V20.4258C114.967 21.3547 115.25 22.0061 115.816 22.38C116.383 22.7425 117.199 22.9238 118.264 22.9238Z" fill="#CCB1ED" fill-opacity="0.87"/>
<path d="M130.128 24.708L131.063 21.5643C132.037 21.9835 133.057 22.3177 134.122 22.5669C135.198 22.8048 136.184 22.9238 137.079 22.9238C137.918 22.9238 138.541 22.7255 138.949 22.329C139.357 21.9212 139.561 21.366 139.561 20.6637C139.561 20.1312 139.442 19.7177 139.204 19.4232C138.977 19.1173 138.581 18.8737 138.014 18.6925L134.003 17.435C132.564 16.9818 131.572 16.3134 131.029 15.4298C130.496 14.5461 130.23 13.4926 130.23 12.2691C130.23 10.5244 130.842 9.22728 132.065 8.37762C133.3 7.52796 134.875 7.10313 136.79 7.10313C138.354 7.10313 139.68 7.2674 140.768 7.59594C141.855 7.92447 142.728 8.27566 143.385 8.64951L142.297 11.5214C141.946 11.3288 141.482 11.1418 140.904 10.9606C140.326 10.7793 139.708 10.632 139.051 10.5188C138.405 10.3941 137.793 10.3318 137.215 10.3318C136.241 10.3318 135.572 10.5018 135.21 10.8416C134.847 11.1815 134.666 11.6516 134.666 12.2521C134.666 12.6372 134.756 12.9771 134.938 13.2716C135.119 13.5549 135.442 13.7701 135.907 13.9174L139.68 15.1069C140.711 15.4241 141.521 15.8319 142.11 16.3304C142.711 16.8176 143.142 17.4123 143.402 18.1147C143.663 18.8171 143.793 19.6441 143.793 20.5957C143.793 21.6153 143.549 22.5442 143.062 23.3826C142.586 24.2209 141.861 24.8893 140.887 25.3878C139.923 25.8862 138.711 26.1355 137.249 26.1355C135.708 26.1355 134.371 26.0165 133.238 25.7786C132.116 25.552 131.08 25.1952 130.128 24.708Z" fill="#CCB1ED" fill-opacity="0.87"/>
<path d="M147.022 24.708L147.957 21.5643C148.932 21.9835 149.952 22.3177 151.017 22.5669C152.093 22.8048 153.079 22.9238 153.974 22.9238C154.813 22.9238 155.436 22.7255 155.844 22.329C156.252 21.9212 156.456 21.366 156.456 20.6637C156.456 20.1312 156.337 19.7177 156.099 19.4232C155.872 19.1173 155.475 18.8737 154.909 18.6925L150.898 17.435C149.459 16.9818 148.467 16.3134 147.923 15.4298C147.391 14.5461 147.124 13.4926 147.124 12.2691C147.124 10.5244 147.736 9.22728 148.96 8.37762C150.195 7.52796 151.77 7.10313 153.685 7.10313C155.249 7.10313 156.575 7.2674 157.662 7.59594C158.75 7.92447 159.623 8.27566 160.28 8.64951L159.192 11.5214C158.841 11.3288 158.376 11.1418 157.798 10.9606C157.22 10.7793 156.603 10.632 155.946 10.5188C155.3 10.3941 154.688 10.3318 154.11 10.3318C153.136 10.3318 152.467 10.5018 152.104 10.8416C151.742 11.1815 151.561 11.6516 151.561 12.2521C151.561 12.6372 151.651 12.9771 151.833 13.2716C152.014 13.5549 152.337 13.7701 152.801 13.9174L156.575 15.1069C157.606 15.4241 158.416 15.8319 159.005 16.3304C159.606 16.8176 160.036 17.4123 160.297 18.1147C160.557 18.8171 160.688 19.6441 160.688 20.5957C160.688 21.6153 160.444 22.5442 159.957 23.3826C159.481 24.2209 158.756 24.8893 157.781 25.3878C156.818 25.8862 155.606 26.1355 154.144 26.1355C152.603 26.1355 151.266 26.0165 150.133 25.7786C149.011 25.552 147.974 25.1952 147.022 24.708Z" fill="#CCB1ED" fill-opacity="0.87"/>
<path d="M162.863 7.49398H167.181L170.631 21.3264L170.223 21.3094L174.268 7.49398H178.024L182.189 21.4623L181.798 21.4793L185.01 7.49398H189.31L184.449 25.7446H179.928L175.968 12.422H176.41L172.297 25.7446H167.911L162.863 7.49398Z" fill="#CCB1ED" fill-opacity="0.87"/>
<path d="M200.12 26.1355C198.205 26.1355 196.664 25.8976 195.497 25.4217C194.341 24.9346 193.503 24.2492 192.982 23.3656C192.46 22.4819 192.2 21.434 192.2 20.2218V13.0337C192.2 11.7876 192.511 10.7227 193.134 9.83903C193.758 8.95539 194.659 8.28133 195.837 7.81685C197.027 7.34104 198.454 7.10313 200.12 7.10313C201.786 7.10313 203.208 7.34104 204.386 7.81685C205.565 8.28133 206.466 8.95539 207.089 9.83903C207.723 10.7227 208.041 11.7876 208.041 13.0337V20.2218C208.041 21.4227 207.791 22.4706 207.293 23.3656C206.794 24.2492 205.967 24.9346 204.811 25.4217C203.667 25.8976 202.103 26.1355 200.12 26.1355ZM200.12 22.9238C201.106 22.9238 201.899 22.7425 202.5 22.38C203.112 22.0061 203.417 21.3547 203.417 20.4258V12.8298C203.417 11.9009 203.129 11.2551 202.551 10.8926C201.973 10.5188 201.163 10.3318 200.12 10.3318C199.123 10.3318 198.324 10.5188 197.724 10.8926C197.123 11.2551 196.823 11.9009 196.823 12.8298V20.4258C196.823 21.3547 197.106 22.0061 197.673 22.38C198.239 22.7425 199.055 22.9238 200.12 22.9238Z" fill="#CCB1ED" fill-opacity="0.87"/>
<path d="M212.868 7.49398H217.491V9.6691C217.763 9.19329 218.239 8.77413 218.918 8.41161C219.61 8.03776 220.397 7.74887 221.281 7.54496C222.165 7.32971 223.049 7.22209 223.933 7.22209L223.831 11.1475C223.241 11.1815 222.601 11.2551 221.91 11.3684C221.219 11.4817 220.55 11.6346 219.904 11.8272C219.27 12.0198 218.732 12.2577 218.29 12.5409C217.848 12.8242 217.581 13.147 217.491 13.5096V25.7446H212.868V7.49398Z" fill="#CCB1ED" fill-opacity="0.87"/>
<path d="M226.397 20.2388V12.9488C226.397 11.2608 226.992 9.86735 228.182 8.76846C229.383 7.65824 231.315 7.10313 233.978 7.10313C234.499 7.10313 235.06 7.16544 235.66 7.29006C236.272 7.40335 236.844 7.55629 237.377 7.74887V0H242V25.7446H238.873L238.38 24.674C237.79 25.0932 237.088 25.4444 236.272 25.7276C235.468 25.9995 234.595 26.1355 233.655 26.1355C232.012 26.1355 230.652 25.8976 229.575 25.4217C228.499 24.9459 227.7 24.2719 227.179 23.3996C226.658 22.5159 226.397 21.4623 226.397 20.2388ZM237.377 22.1591V10.9606C237.071 10.8133 236.652 10.6717 236.119 10.5358C235.598 10.3998 235.014 10.3318 234.368 10.3318C233.315 10.3318 232.493 10.5188 231.904 10.8926C231.315 11.2665 231.02 11.9179 231.02 12.8468V20.3068C231.02 21.2358 231.292 21.8985 231.836 22.295C232.391 22.6915 233.179 22.8898 234.199 22.8898C234.833 22.8898 235.434 22.8218 236 22.6859C236.567 22.5499 237.026 22.3743 237.377 22.1591Z" fill="#CCB1ED" fill-opacity="0.87"/>
<path d="M69.9594 56.3024L78.2198 31.2206H84.9165L93.2789 56.3024H87.9249L81.4661 34.2453H81.9081L75.2283 56.3024H69.9594ZM74.7355 51.5274L75.7383 47.6189H87.534L88.5028 51.5274H74.7355Z" fill="#CCB1ED" fill-opacity="0.87"/>
<path d="M97.1881 38.0518H101.811V40.2269C102.083 39.7511 102.559 39.3319 103.239 38.9694C103.93 38.5956 104.718 38.3067 105.601 38.1028C106.485 37.8875 107.369 37.7799 108.253 37.7799L108.151 41.7053C107.562 41.7393 106.922 41.8129 106.23 41.9262C105.539 42.0395 104.871 42.1925 104.225 42.385C103.59 42.5776 103.052 42.8155 102.61 43.0988C102.168 43.382 101.902 43.7048 101.811 44.0674V56.3024H97.1881V38.0518Z" fill="#CCB1ED" fill-opacity="0.87"/>
<path d="M110.717 50.5927V43.4726C110.717 41.6147 111.42 40.1816 112.825 39.1733C114.241 38.1651 116.134 37.661 118.502 37.661C121.312 37.661 123.306 38.1991 124.485 39.2753C125.675 40.3515 126.269 41.8073 126.269 43.6425V48.0608H115.341V51.0346C115.341 52.1108 115.618 52.7905 116.173 53.0737C116.729 53.3456 117.556 53.4816 118.655 53.4816C119.539 53.4816 120.219 53.4079 120.695 53.2607C121.17 53.1021 121.499 52.8245 121.68 52.428C121.873 52.0202 121.969 51.4424 121.969 50.6947H126.252C126.252 52.2014 125.969 53.3909 125.403 54.2633C124.847 55.1356 123.998 55.7587 122.853 56.1325C121.72 56.5064 120.292 56.6933 118.57 56.6933C117.086 56.6933 115.748 56.512 114.559 56.1495C113.369 55.7757 112.428 55.1469 111.737 54.2633C111.057 53.3796 110.717 52.1561 110.717 50.5927ZM121.901 45.2399V43.0988C121.901 42.419 121.754 41.9262 121.459 41.6204C121.176 41.3032 120.785 41.1049 120.287 41.0256C119.799 40.935 119.244 40.8897 118.621 40.8897C117.692 40.8897 116.91 41.0313 116.275 41.3145C115.652 41.5864 115.341 42.2095 115.341 43.1837V45.2399H121.901Z" fill="#CCB1ED" fill-opacity="0.87"/>
<path d="M130.876 38.0518H135.499V39.6661C136.201 39.0657 136.977 38.5786 137.827 38.2047C138.677 37.8309 139.765 37.644 141.091 37.644C142.462 37.644 143.572 37.8989 144.422 38.4087C145.272 38.9071 145.895 39.5755 146.292 40.4138C146.688 41.2522 146.886 42.1868 146.886 43.2177V56.3024H142.263V43.4726C142.263 42.8269 142.093 42.3341 141.753 41.9942C141.425 41.6543 141.011 41.4221 140.513 41.2975C140.025 41.1729 139.538 41.1106 139.051 41.1106C138.496 41.1106 137.946 41.2125 137.402 41.4164C136.858 41.6204 136.405 41.9206 136.043 42.3171C135.68 42.7136 135.499 43.212 135.499 43.8125V56.3024H130.876V38.0518Z" fill="#CCB1ED" fill-opacity="0.87"/>
<path d="M156.66 56.6933C155.617 56.6933 154.699 56.4894 153.906 56.0815C153.113 55.6737 152.49 55.0959 152.036 54.3482C151.595 53.6005 151.374 52.7225 151.374 51.7143C151.374 50.8533 151.549 50.0886 151.9 49.4202C152.252 48.7518 152.892 48.1344 153.821 47.568C154.75 46.9902 156.082 46.4294 157.815 45.8856C158.767 45.5798 159.549 45.2965 160.161 45.036C160.773 44.7754 161.226 44.4922 161.521 44.1863C161.815 43.8804 161.963 43.5179 161.963 43.0988C161.963 42.6116 161.866 42.2038 161.674 41.8753C161.481 41.5467 161.175 41.3032 160.756 41.1446C160.337 40.9746 159.781 40.8897 159.09 40.8897C158.32 40.8897 157.73 40.9916 157.322 41.1955C156.915 41.3994 156.631 41.6827 156.473 42.0452C156.325 42.4077 156.252 42.8269 156.252 43.3027V44.0164H151.917V43.4726C151.917 41.7053 152.507 40.2949 153.685 39.2413C154.864 38.1877 156.699 37.661 159.192 37.661C161.016 37.661 162.461 37.9159 163.526 38.4256C164.591 38.9354 165.356 39.6548 165.821 40.5838C166.285 41.5014 166.518 42.589 166.518 43.8465V51.0685C166.518 51.8955 166.62 52.4393 166.824 52.6999C167.039 52.9491 167.43 53.0737 167.996 53.0737L167.809 56.4384H166.841C165.572 56.4384 164.586 56.2628 163.883 55.9116C163.181 55.5604 162.665 55.0166 162.336 54.2803C162.008 54.7107 161.566 55.1129 161.011 55.4868C160.467 55.8493 159.827 56.1382 159.09 56.3534C158.365 56.58 157.555 56.6933 156.66 56.6933ZM158.206 53.6175C158.58 53.6175 159.005 53.5495 159.481 53.4136C159.957 53.2663 160.416 53.0511 160.858 52.7679C161.311 52.4846 161.679 52.1221 161.963 51.6803V47.0582C161.657 47.3074 161.169 47.5849 160.501 47.8908C159.832 48.1854 159.113 48.4743 158.342 48.7575C157.334 49.1313 156.671 49.5448 156.354 49.998C156.036 50.4511 155.878 50.9383 155.878 51.4594C155.878 52.1958 156.093 52.7395 156.524 53.0907C156.954 53.4419 157.515 53.6175 158.206 53.6175Z" fill="#CCB1ED" fill-opacity="0.87"/>
<path d="M2.06215 57.1397L0.647282 57.943C0.277084 58.1531 -0.1345 57.7417 0.075612 57.3714L1.78192 54.3649L2.06215 57.1397Z" fill="#CCB1ED" fill-opacity="0.87"/>
<path d="M56.6398 57.3714C56.8497 57.7416 56.4383 58.1529 56.0681 57.943L54.3639 56.9756L55.6722 55.6671L56.6398 57.3714Z" fill="#CCB1ED" fill-opacity="0.87"/>
<path d="M7.03307 48.6129L9.40473 50.9849L10.2939 52.4675L2.85976 56.6876L2.49744 53.1045L5.55062 47.7235L7.03307 48.6129Z" fill="#CCB1ED" fill-opacity="0.87"/>
<path d="M55.2432 54.9107L53.6073 56.5466L46.4211 52.467C47.5889 50.5205 49.218 48.8914 51.1644 47.7235L55.2432 54.9107Z" fill="#CCB1ED" fill-opacity="0.87"/>
<path fill-rule="evenodd" clip-rule="evenodd" d="M32.2019 55.1105H30.2676L29.7622 53.3847H26.2024L25.6801 55.1105H23.7761L26.7609 46.0449H29.1806L32.2019 55.1105ZM26.6303 51.9722H29.3489L28.012 47.4068L26.6303 51.9722Z" fill="#CCB1ED" fill-opacity="0.87"/>
<path d="M50.3461 46.9049C48.3997 48.0729 46.7706 49.7023 45.6027 51.6489L37.8332 43.8785L45.7441 42.3027L50.3461 46.9049Z" fill="#CCB1ED" fill-opacity="0.87"/>
<path d="M48.1688 7.47251L50.5405 9.84409L51.4301 11.3266L33.1006 29.6577L38.3891 34.9467L30.4786 36.5229L28.3573 34.4017L11.1127 51.6485L10.2235 50.1663L7.85181 47.7943L6.36937 46.9049L23.614 29.6577L9.43541 15.4775L9.04075 15.5998C8.73187 15.6954 8.4341 15.8203 8.15112 15.972L20.1081 27.9298L18.8876 28.2348C18.1733 28.4134 17.4176 28.2043 16.897 27.6836L6.17453 16.9601C5.35596 16.1414 5.35594 14.8137 6.17453 13.995L7.06416 13.1055L5.28531 11.3266L10.0286 6.58307L28.3573 24.9141L46.6868 6.58307L48.1688 7.47251Z" fill="#CCB1ED" fill-opacity="0.87"/>
<path d="M44.318 40.8765L36.4075 42.4523L34.8687 40.9138L42.7796 39.338L44.318 40.8765Z" fill="#CCB1ED" fill-opacity="0.87"/>
<path d="M41.3536 37.9118L33.443 39.4876L31.9042 37.9487L39.8151 36.3733L41.3536 37.9118Z" fill="#CCB1ED" fill-opacity="0.87"/>
<path d="M6.33579 26.1849C7.10945 26.1849 7.73173 26.2644 8.20252 26.424C8.67745 26.5796 9.03803 26.8009 9.28368 27.0876C9.52929 27.3742 9.69518 27.712 9.78114 28.1009C9.86712 28.4858 9.91007 28.9077 9.91007 29.3663V29.4766L8.12293 29.6855V29.225C8.12293 28.7992 8.06974 28.4716 7.96333 28.2423C7.85688 28.0089 7.67446 27.847 7.41653 27.7569C7.15861 27.6628 6.79836 27.6156 6.33579 27.6156C5.88551 27.6156 5.51291 27.6607 5.21815 27.7507C4.92749 27.8367 4.71018 27.9944 4.56689 28.2236C4.42359 28.4488 4.35215 28.7704 4.35215 29.1881V32.6153C4.35215 33.0288 4.42361 33.3462 4.56689 33.5674C4.71018 33.7844 4.92746 33.9339 5.21815 34.0158C5.51291 34.0936 5.88763 34.1323 6.34201 34.1323C6.80457 34.1323 7.16484 34.0936 7.42275 34.0158C7.68068 33.9339 7.86097 33.7822 7.96333 33.5611C8.06974 33.3359 8.12293 33.0083 8.12293 32.5784V32.29H9.91007V32.4558C9.91006 32.902 9.86881 33.3134 9.78695 33.69C9.70507 34.0667 9.54347 34.3964 9.30192 34.679C9.06039 34.9574 8.70226 35.1745 8.2274 35.3301C7.75248 35.4857 7.12185 35.5634 6.33579 35.5634C5.52923 35.5634 4.87397 35.4857 4.37039 35.3301C3.87101 35.1704 3.48817 34.9494 3.22207 34.6669C2.95597 34.3844 2.77396 34.0526 2.67569 33.6718C2.57743 33.291 2.52811 32.8772 2.52811 32.4309V29.4032C2.52811 28.9446 2.57531 28.5206 2.66947 28.1316C2.76774 27.7386 2.94763 27.3965 3.20964 27.1058C3.47576 26.8151 3.861 26.5899 4.36458 26.4302C4.86814 26.2665 5.52525 26.1849 6.33579 26.1849Z" fill="#CCB1ED" fill-opacity="0.87"/>
<path fill-rule="evenodd" clip-rule="evenodd" d="M50.2445 25.9188C51.1205 25.9188 51.8002 26.0603 52.2833 26.3428C52.7663 26.6212 53.104 26.9999 53.2964 27.4788C53.4889 27.9538 53.585 28.4883 53.585 29.082V31.8643C53.585 32.4662 53.4829 33.0028 53.2782 33.4737C53.0776 33.9445 52.7356 34.315 52.2526 34.5853C51.7695 34.8514 51.1019 34.9844 50.2503 34.9844H46.3137V25.9188H50.2445ZM48.1377 33.5657H50.0907C50.5206 33.5657 50.8565 33.5147 51.0981 33.4123C51.3396 33.3059 51.5093 33.144 51.6075 32.927C51.7099 32.71 51.7613 32.4334 51.7613 32.0977V28.8424C51.7613 28.5149 51.7099 28.2404 51.6075 28.0193C51.5052 27.7942 51.3312 27.6241 51.0856 27.5095C50.8441 27.3949 50.5123 27.3379 50.0907 27.3379H48.1377V33.5657Z" fill="#CCB1ED" fill-opacity="0.87"/>
<path d="M25.6689 11.6445L27.2596 5.37365H28.8009L30.6187 11.577L32.0928 5.37365H33.8431L31.4971 14.4393H29.9678L28.0642 7.97153L26.3198 14.4393H24.6864L22.3342 5.37365H24.1027L25.6689 11.6445Z" fill="#CCB1ED" fill-opacity="0.87"/>
<path d="M4.09969 3.61797C4.91831 2.79942 6.24558 2.79935 7.06416 3.61797L9.13942 5.69362L4.39609 10.4372L2.32084 8.36196C1.50221 7.54324 1.50221 6.21558 2.32084 5.39686L4.09969 3.61797Z" fill="#CCB1ED" fill-opacity="0.87"/>
<path d="M49.6513 5.98996L52.0229 8.36196L52.9121 9.84451L52.3193 10.4372L51.3804 9.00438L49.0087 6.63239L47.576 5.69362L48.1688 5.10052L49.6513 5.98996Z" fill="#CCB1ED" fill-opacity="0.87"/>
<path d="M50.8369 4.80417L53.2085 7.17617L54.0978 8.6583L53.505 9.25141L52.6157 7.76886L50.2441 5.39728L48.7616 4.50742L49.3549 3.91473L50.8369 4.80417Z" fill="#CCB1ED" fill-opacity="0.87"/>
<path d="M53.505 0.949632C53.8324 0.622191 54.3636 0.622162 54.691 0.949632L57.0622 3.32163C57.3897 3.64911 57.3897 4.17993 57.0622 4.50742L55.4745 6.09524C55.6345 6.67333 55.5845 7.17174 55.2838 7.47251L54.691 8.06562L53.8014 6.58307L51.4297 4.21107L49.9477 3.32163L50.5405 2.72852C50.8411 2.4279 51.3394 2.37764 51.9172 2.53745L53.505 0.949632Z" fill="#CCB1ED" fill-opacity="0.87"/>
<path d="M1.43162 1.54273C1.75906 1.21533 2.28981 1.21532 2.61724 1.54273L3.80328 2.72852L1.43162 5.10052L0.245579 3.91473C-0.0818536 3.58724 -0.0818657 3.05601 0.245579 2.72852L1.43162 1.54273Z" fill="#CCB1ED" fill-opacity="0.87"/>
</svg>
