<svg width="92" height="100" viewBox="0 0 92 100" fill="none" xmlns="http://www.w3.org/2000/svg">
<path d="M58.0947 99.2256C58.2944 99.6568 57.7999 100.077 57.4072 99.8096L55.5977 98.5771L57.1748 97.2402L58.0947 99.2256ZM56.7666 96.3584L54.7959 98.0293L47.1699 92.8291C48.6485 90.7697 50.612 89.1058 52.8857 87.9844L56.7666 96.3584ZM52.0498 86.998C49.7761 88.1194 47.8126 89.7834 46.334 91.8428L38.3984 82.4814L47.3486 81.4541L52.0498 86.998ZM27.2061 70.7256C27.2438 70.7746 27.2839 70.8222 27.3252 70.8682L41.9229 88.3799H38.1328C28.7443 88.3794 21.1328 80.7685 21.1328 71.3799V63.4385L27.2061 70.7256ZM74.4199 0C83.8086 0 91.4197 7.61136 91.4199 17V71.3799C91.4199 80.7687 83.8088 88.3799 74.4199 88.3799H54.6055L40.6846 71.6787H84.1123C85.4575 71.6787 86.5479 70.5874 86.5479 69.2422C86.5474 67.8974 85.4572 66.8067 84.1123 66.8066H36.624L31.9834 61.2393H84.1123C85.4575 61.2392 86.5479 60.1489 86.5479 58.8037C86.5474 57.4589 85.4572 56.3682 84.1123 56.3682H29.1357C28.77 56.3682 28.4235 56.4512 28.1123 56.5957L21.1328 48.2217V17C21.133 7.61162 28.7445 0.000428233 38.1328 0H74.4199ZM45.8926 79.7354L36.9414 80.7637L35.3701 78.9092L44.3213 77.8818L45.8926 79.7354ZM42.8643 76.1631L33.9131 77.1914L32.3418 75.3369L41.293 74.3096L42.8643 76.1631ZM39.8369 72.5908L30.8857 73.6201L9.3916 48.2637L8.94043 48.3633C8.58794 48.4413 8.24483 48.5535 7.91602 48.6963L20.1299 63.1035L18.7432 63.3311C17.9317 63.4642 17.1089 63.1624 16.5771 62.5352L5.625 49.6152C4.78898 48.629 4.91051 47.1507 5.89648 46.3145L6.96973 45.4062L5.15234 43.2627L10.8672 38.418L39.8369 72.5908ZM29.1357 45.2334C27.7909 45.2336 26.7004 46.3251 26.7002 47.6699C26.7004 49.0148 27.7909 50.1053 29.1357 50.1055H84.1123C85.4573 50.1054 86.5477 49.0149 86.5479 47.6699C86.5476 46.3249 85.4573 45.2334 84.1123 45.2334H29.1357ZM4.53906 34.5732C5.52547 33.7372 7.00371 33.8594 7.83984 34.8457L9.95898 37.3467L4.24414 42.1914L2.12402 39.6904C1.2884 38.7042 1.40964 37.2267 2.39551 36.3906L4.53906 34.5732ZM29.1357 34.0996C27.7909 34.0998 26.7004 35.1903 26.7002 36.5352C26.7002 37.8802 27.7908 38.9705 29.1357 38.9707H84.1123C85.4574 38.9707 86.5478 37.8803 86.5479 36.5352C86.5476 35.1902 85.4573 34.0996 84.1123 34.0996H29.1357ZM1.75977 32.0195C2.15428 31.6852 2.74561 31.7335 3.08008 32.1279L4.29102 33.5566L1.43262 35.9795L0.22168 34.5498C-0.112374 34.1553 -0.063338 33.5648 0.331055 33.2305L1.75977 32.0195ZM29.1357 23.6611C27.7909 23.6613 26.7004 24.7518 26.7002 26.0967C26.7003 27.4416 27.7908 28.532 29.1357 28.5322H84.1123C85.4574 28.5322 86.5477 27.4417 86.5479 26.0967C86.5476 24.7517 85.4573 23.6612 84.1123 23.6611H29.1357ZM29.1357 13.2227C27.7909 13.2229 26.7004 14.3133 26.7002 15.6582C26.7004 17.0031 27.7908 18.0935 29.1357 18.0938H84.1123C85.4574 18.0937 86.5477 17.0032 86.5479 15.6582C86.5476 14.3132 85.4573 13.2227 84.1123 13.2227H29.1357Z" fill="white" fill-opacity="0.69"/>
</svg>
