<svg width="85" height="85" viewBox="0 0 85 85" fill="none" xmlns="http://www.w3.org/2000/svg">
<path d="M76.7302 46.3111L66.7624 56.279L83.8669 73.3835L73.3839 83.8665L56.2794 66.762L46.7355 76.3059L46.7348 46.3111L76.7302 46.3111ZM39.0823 46.3111L39.0823 76.0497L29.2429 66.2102L10.4832 84.97L0.000176282 74.487L18.7599 55.7273L9.34379 46.3111L39.0823 46.3111ZM55.7276 18.7595L74.4874 -0.000223346L84.9704 10.4828L66.2106 29.2425L75.6268 38.6586L46.7348 38.6586L46.7355 9.76738L55.7276 18.7595ZM29.7946 19.3113L39.0823 10.0236L39.0823 38.6586L10.4473 38.6586L19.3116 29.7942L0.55191 11.0345L11.0349 0.551516L29.7946 19.3113Z" fill="white" fill-opacity="0.69"/>
</svg>
