<svg width="69" height="91" viewBox="0 0 69 91" fill="none" xmlns="http://www.w3.org/2000/svg">
<path fill-rule="evenodd" clip-rule="evenodd" d="M61.8921 20.8105C67.2294 21.9237 70.2041 29.2323 68.5366 37.1338C66.8689 45.035 61.1904 50.5385 55.853 49.4258C55.5178 49.3559 55.1915 49.2609 54.8755 49.1436C51.3978 54.235 46.0841 57.9849 39.8804 59.458L39.8804 75.8057L41.7983 78.4961C50.3096 79.3183 56.4292 81.5953 56.4292 84.2764C56.4283 87.6498 46.7389 90.3848 34.7876 90.3848C22.8365 90.3847 13.1488 87.6498 13.1479 84.2764C13.1479 81.5954 19.2663 79.3193 27.7769 78.4971L29.6968 75.8047L29.6968 59.7793C22.924 58.6204 17.0753 54.778 13.3003 49.3906C13.2497 49.4024 13.199 49.4151 13.148 49.4258C7.81052 50.5385 2.13105 45.0351 0.463377 37.1338C-1.2041 29.2321 1.77141 21.9236 7.10889 20.8105C7.66716 20.6942 8.22978 20.6513 8.79053 20.6748L8.79053 10.0381C8.78946 10.0004 8.78662 9.96263 8.78662 9.9248C8.78662 4.44361 20.0524 -1.53214e-06 33.9487 -1.53214e-06C47.8449 4.63266e-05 59.1099 4.44364 59.1099 9.9248C59.1099 9.95806 59.1078 9.99123 59.1069 10.0244L59.2153 10.0244L59.2153 20.7861C60.1035 20.6237 61.0028 20.6252 61.8921 20.8105ZM7.95947 42.6562C9.71904 43.9385 12.1178 42.5614 11.8071 40.4473L10.3296 30.3906C10.0154 28.2532 7.25073 27.4779 5.94092 29.1602C5.72911 29.4322 5.58031 29.7482 5.50537 30.0859L5.04541 32.1582C4.47761 34.7193 4.86264 37.4239 6.13037 39.7832L7.21924 41.8086C7.39814 42.1415 7.65165 42.4318 7.95947 42.6562ZM62.8774 40.1826C64.0202 37.8925 64.324 35.2594 63.7368 32.7344L63.2251 30.5322C63.1493 30.2063 63.0041 29.8985 62.8013 29.6299C61.5207 27.9342 58.859 28.6076 58.6089 30.6904L57.3862 40.8896C57.1394 42.9497 59.5049 44.34 61.1519 43.1025C61.4342 42.8903 61.6639 42.6143 61.8218 42.2979L62.8774 40.1826Z" fill="white" fill-opacity="0.69"/>
</svg>
