<svg width="95" height="96" viewBox="0 0 95 96" fill="none" xmlns="http://www.w3.org/2000/svg">
<path d="M94.0488 73.9385L47.5938 95.4961V44.7832L47.5312 44.7529L94.0479 23L94.0488 73.9385ZM46.5176 44.6592L46.4551 44.6895V95.4023L0 73.8447L0.000976562 22.9062L46.5176 44.6592ZM59.4912 80.4746C58.1243 79.1082 55.1173 79.8995 52.7744 82.2422C50.4314 84.5852 49.6394 87.593 51.0059 88.96C52.3727 90.3268 55.3805 89.5355 57.7236 87.1924C60.0668 84.8492 60.858 81.8414 59.4912 80.4746ZM10.7236 68.2422C8.3807 65.8995 5.37371 65.1082 4.00684 66.4746C2.64 67.8414 3.43127 70.8492 5.77441 73.1924C8.11755 75.5355 11.1254 76.3268 12.4922 74.96C13.8587 73.593 13.0666 70.5852 10.7236 68.2422ZM90.4912 66.4746C89.1243 65.1082 86.1173 65.8995 83.7744 68.2422C81.4314 70.5852 80.6394 73.593 82.0059 74.96C83.3727 76.3268 86.3805 75.5355 88.7236 73.1924C91.0668 70.8492 91.858 67.8414 90.4912 66.4746ZM24.7236 58.2422C22.3807 55.8995 19.3737 55.1082 18.0068 56.4746C16.64 57.8414 17.4313 60.8492 19.7744 63.1924C22.1176 65.5355 25.1254 66.3268 26.4922 64.96C27.8587 63.593 27.0666 60.5852 24.7236 58.2422ZM76.4912 56.4746C75.1243 55.1082 72.1173 55.8995 69.7744 58.2422C67.4314 60.5852 66.6394 63.593 68.0059 64.96C69.3727 66.3268 72.3805 65.5355 74.7236 63.1924C77.0668 60.8492 77.858 57.8414 76.4912 56.4746ZM40.7236 47.2422C38.3807 44.8995 35.3737 44.1082 34.0068 45.4746C32.64 46.8414 33.4313 49.8492 35.7744 52.1924C38.1176 54.5355 41.1254 55.3268 42.4922 53.96C43.8587 52.593 43.0666 49.5852 40.7236 47.2422ZM60.4912 45.4746C59.1243 44.1082 56.1173 44.8995 53.7744 47.2422C51.4314 49.5852 50.6394 52.593 52.0059 53.96C53.3727 55.3268 56.3805 54.5355 58.7236 52.1924C61.0668 49.8492 61.858 46.8414 60.4912 45.4746ZM93.8691 21.6689L47.2002 43.5L0.53125 21.6689L47.2002 0L93.8691 21.6689ZM90.4912 31.4746C89.1243 30.1082 86.1173 30.8995 83.7744 33.2422C81.4314 35.5852 80.6394 38.593 82.0059 39.96C83.3727 41.3268 86.3805 40.5355 88.7236 38.1924C91.0668 35.8492 91.858 32.8414 90.4912 31.4746ZM46.5312 18C43.2175 18 40.5312 19.567 40.5312 21.5C40.5312 23.433 43.2175 25 46.5312 25C49.845 25 52.5312 23.433 52.5312 21.5C52.5312 19.567 49.845 18 46.5312 18Z" fill="white" fill-opacity="0.69"/>
</svg>
