<svg width="77" height="81" viewBox="0 0 77 81" fill="none" xmlns="http://www.w3.org/2000/svg">
<path fill-rule="evenodd" clip-rule="evenodd" d="M11.5996 74.627C11.1979 74.9801 10.7901 75.3267 10.376 75.665L7.99318 77.6113C8.75179 78.8862 8.98038 80.0268 8.47755 80.6133C7.6458 81.5832 5.13384 80.6676 2.8672 78.5684C0.600665 76.4692 -0.56284 73.9809 0.26857 73.0107C0.771304 72.4243 1.88707 72.5295 3.1924 73.166L4.29201 71.3076L11.5996 74.627ZM73.8067 73.166C75.1124 72.529 76.2285 72.4242 76.7315 73.0107C77.5631 73.9808 76.3995 76.4691 74.1328 78.5684C71.8664 80.6673 69.3554 81.5828 68.5235 80.6133C68.0207 80.0268 68.2483 78.8861 69.0069 77.6113L66.624 75.665C66.21 75.3267 65.8021 74.9801 65.4004 74.627L72.708 71.3076L73.8067 73.166ZM13.6055 72.749C13.2998 73.0532 12.99 73.3534 12.6758 73.6484L4.97951 70.1533C5.18854 69.8065 5.40045 69.4617 5.61818 69.1211L13.6055 72.749ZM71.3819 69.1211C71.5996 69.4617 71.8124 69.8065 72.0215 70.1533L64.3242 73.6484C64.0102 73.3535 63.7011 73.0531 63.3955 72.749L71.3819 69.1211ZM66.1787 18.3594L49.7608 37.5088L61.668 51.3984L64.9317 48.375C64.8031 47.4092 65.125 46.3966 65.8779 45.6992C67.0779 44.5881 68.9171 44.6982 69.9863 45.9453C71.0556 47.1925 70.9498 49.1044 69.75 50.2158C68.9965 50.9137 67.9908 51.1292 67.082 50.8848L63.1602 54.5166L62.6748 59.0303L64.2852 60.5469C65.2368 61.4432 66.1478 62.3831 67.0186 63.3604L58.6328 67.1689C58.4327 66.8918 58.2342 66.6131 58.0401 66.3311L56.7754 64.4941L52.4063 64.4766L48.001 68.5566C48.1302 69.5229 47.8091 70.5366 47.0557 71.2344C45.8558 72.3453 44.0165 72.235 42.9473 70.9883C41.878 69.741 41.9836 67.8282 43.1836 66.7168C43.9368 66.0194 44.9422 65.8029 45.8506 66.0469L49.1133 63.0244L38.5 50.6445L27.8867 63.0254L31.1494 66.0469C32.0581 65.8027 33.0641 66.0191 33.8174 66.7168C35.0173 67.8282 35.123 69.741 34.0537 70.9883C32.9844 72.2353 31.1443 72.3456 29.9444 71.2344C29.191 70.5367 28.869 69.5229 28.9981 68.5566L24.5918 64.4766L20.2236 64.4941L18.96 66.3311C18.7658 66.6131 18.5674 66.8918 18.3672 67.1689L9.98146 63.3604C10.8522 62.3831 11.7632 61.4432 12.7149 60.5469L14.3242 59.0312L13.8399 54.5186L9.91701 50.8848C9.00858 51.1287 8.00412 50.9133 7.25099 50.2158C6.05103 49.1045 5.94453 47.1926 7.01369 45.9453C8.08297 44.698 9.92304 44.5878 11.1231 45.6992C11.8763 46.3968 12.1973 47.4099 12.0684 48.376L15.3311 51.3984L27.2383 37.5078L10.8223 18.3594L6.34279 0L23.376 6.73242L38.499 24.373L53.624 6.73242L70.6582 0L66.1787 18.3594ZM15.7471 70.4629C15.3711 70.8931 14.9881 71.3165 14.5967 71.7314L6.36525 67.9922C6.67728 67.5345 6.99736 67.0829 7.32521 66.6377L15.7471 70.4629ZM69.6758 66.6377C70.0036 67.0828 70.3228 67.5346 70.6348 67.9922L62.4033 71.7314C62.0119 71.3165 61.6289 70.893 61.2529 70.4629L69.6758 66.6377ZM17.5518 68.2656C17.2559 68.6504 16.954 69.0299 16.6465 69.4043L8.15431 65.5469C8.45429 65.1642 8.76051 64.7864 9.07228 64.4141L17.5518 68.2656ZM67.9287 64.4141C68.2405 64.7865 68.5467 65.1642 68.8467 65.5469L60.3545 69.4043C60.047 69.0298 59.7441 68.6505 59.4483 68.2656L67.9287 64.4141ZM16.959 9.99609C16.4918 9.43955 15.676 9.38393 15.1377 9.87207C14.5995 10.3602 14.5426 11.2072 15.0098 11.7637L55.4063 59.8867L57.3555 58.1191L16.959 9.99609ZM21.332 53.8867L23.2305 55.7129L33.5069 44.166L31.6074 42.3408L21.332 53.8867ZM62.2393 9.90137C61.7149 9.39731 60.8977 9.42931 60.4141 9.97266L42.7832 29.7832L44.6826 31.6094L62.3135 11.7988C62.7971 11.2554 62.7637 10.4055 62.2393 9.90137Z" fill="white" fill-opacity="0.69"/>
</svg>
