<svg width="125" height="86" viewBox="0 0 125 86" fill="none" xmlns="http://www.w3.org/2000/svg">
<path d="M61.8525 39.1768C79.136 39.1768 93.1473 49.6293 93.1475 62.5225C93.1474 63.0176 93.1237 63.5096 93.083 63.9971C93.1231 64.1631 93.1474 64.3358 93.1475 64.5137V83.6074C93.1474 84.8553 92.1033 85.8671 90.8154 85.8672H32.8906C31.6027 85.8672 30.5587 84.8553 30.5586 83.6074V64.5137C30.5586 64.3352 30.5817 64.1616 30.6221 63.9951C30.5814 63.5082 30.5586 63.017 30.5586 62.5225C30.5588 49.6294 44.5692 39.1769 61.8525 39.1768ZM25.8604 39.4736C31.3412 39.4737 36.4235 40.7798 40.6064 43.0059C33.0919 47.7242 28.2969 54.8863 28.2969 62.9053C28.2969 63.4502 28.3226 63.9918 28.3662 64.5283C28.3229 64.7117 28.2969 64.9031 28.2969 65.0996V79.0537H1.92676C0.863174 79.0533 0.000600869 78.1958 0 77.1387V60.9521C2.65977e-06 60.8011 0.0194868 60.6536 0.0527344 60.5127C0.0191741 60.1002 4.32446e-05 59.6836 0 59.2646C1.91099e-06 48.3351 11.5785 39.4739 25.8604 39.4736ZM98.2891 39.4736C112.571 39.4736 124.149 48.3349 124.149 59.2646L124.136 59.8916C124.127 60.0995 124.113 60.3074 124.097 60.5137C124.13 60.6544 124.149 60.8014 124.149 60.9521V77.1387C124.149 78.196 123.287 79.0536 122.223 79.0537H95.5342V65.0996C95.5342 64.9035 95.5079 64.7123 95.4648 64.5293C95.5086 63.9924 95.5341 63.4506 95.5342 62.9053C95.5342 54.9379 90.8005 47.8168 83.3691 43.0977C87.5845 40.8147 92.7322 39.4738 98.2891 39.4736ZM25.8604 6.2627C34.0756 6.26292 40.7354 12.8831 40.7354 21.0488C40.7349 29.2142 34.0753 35.8338 25.8604 35.834C17.6455 35.8337 10.9849 29.2141 10.9844 21.0488C10.9844 12.8831 17.6452 6.26303 25.8604 6.2627ZM98.2891 6.2627C106.504 6.2627 113.164 12.883 113.164 21.0488C113.164 29.2143 106.504 35.834 98.2891 35.834C90.0745 35.8334 83.4146 29.2139 83.4141 21.0488C83.4141 12.8833 90.0742 6.26329 98.2891 6.2627ZM61.8525 0C71.7943 1.73827e-06 79.8543 7.8087 79.8545 17.4414C79.8545 27.0743 71.7944 34.8838 61.8525 34.8838C51.9108 34.8836 43.8516 27.0741 43.8516 17.4414C43.8518 7.80883 51.911 0.000211149 61.8525 0Z" fill="white" fill-opacity="0.71"/>
</svg>
