<svg width="571" height="137" viewBox="0 0 571 137" fill="none" xmlns="http://www.w3.org/2000/svg">
<path d="M193.231 61.7002C187.972 61.7002 183.701 61.193 180.418 60.1787C177.162 59.1377 174.666 57.6963 172.931 55.8545C171.196 54.0127 170.008 51.8506 169.367 49.3682C168.727 46.8857 168.407 44.1898 168.407 41.2803V21.541C168.407 18.5514 168.713 15.7887 169.327 13.2529C169.968 10.6904 171.143 8.46159 172.851 6.56641C174.586 4.67122 177.095 3.20312 180.378 2.16211C183.661 1.0944 187.946 0.560547 193.231 0.560547C198.276 0.560547 202.333 1.08105 205.403 2.12207C208.499 3.13639 210.848 4.5778 212.449 6.44629C214.051 8.31478 215.132 10.5169 215.693 13.0527C216.253 15.5618 216.533 18.3112 216.533 21.3008V22.0215L204.882 23.3828V20.3799C204.882 17.6038 204.535 15.4684 203.841 13.9736C203.147 12.4521 201.959 11.3978 200.278 10.8105C198.596 10.1966 196.247 9.88965 193.231 9.88965C190.295 9.88965 187.865 10.1833 185.944 10.7705C184.048 11.3311 182.634 12.3587 181.699 13.8535C180.765 15.3216 180.298 17.417 180.298 20.1396V42.4814C180.298 45.1774 180.765 47.2461 181.699 48.6875C182.634 50.1022 184.048 51.0765 185.944 51.6104C187.865 52.1175 190.308 52.3711 193.271 52.3711C196.287 52.3711 198.636 52.1175 200.318 51.6104C201.999 51.0765 203.174 50.0889 203.841 48.6475C204.535 47.1794 204.882 45.0439 204.882 42.2412V40.3594H216.533V41.4404C216.533 44.3499 216.267 47.0326 215.733 49.4883C215.199 51.944 214.144 54.0928 212.57 55.9346C210.995 57.7497 208.659 59.1644 205.563 60.1787C202.466 61.193 198.356 61.7002 193.231 61.7002Z" fill="#CCB1ED" fill-opacity="0.87"/>
<path d="M228.065 17.6572H238.955V22.7822C239.596 21.6611 240.717 20.6735 242.319 19.8193C243.947 18.9385 245.802 18.2578 247.884 17.7773C249.966 17.2702 252.048 17.0166 254.13 17.0166L253.89 26.2656C252.502 26.3457 250.994 26.5192 249.365 26.7861C247.737 27.0531 246.162 27.4134 244.641 27.8672C243.146 28.321 241.878 28.8815 240.837 29.5488C239.796 30.2161 239.169 30.9769 238.955 31.8311V60.6592H228.065V17.6572Z" fill="#CCB1ED" fill-opacity="0.87"/>
<path d="M278.594 61.5801C274.083 61.5801 270.453 61.0195 267.703 59.8984C264.981 58.7507 263.005 57.1357 261.778 55.0537C260.55 52.9717 259.936 50.5026 259.936 47.6465V30.71C259.936 27.7738 260.67 25.2646 262.138 23.1826C263.606 21.1006 265.728 19.5124 268.504 18.418C271.307 17.2969 274.67 16.7363 278.594 16.7363C282.518 16.7363 285.868 17.2969 288.644 18.418C291.42 19.5124 293.542 21.1006 295.01 23.1826C296.505 25.2646 297.252 27.7738 297.252 30.71V47.6465C297.252 50.4759 296.665 52.945 295.491 55.0537C294.316 57.1357 292.367 58.7507 289.645 59.8984C286.949 61.0195 283.265 61.5801 278.594 61.5801ZM278.594 54.0127C280.916 54.0127 282.785 53.5856 284.199 52.7314C285.641 51.8506 286.362 50.3158 286.362 48.127V30.2295C286.362 28.0407 285.681 26.5192 284.32 25.665C282.958 24.7842 281.05 24.3438 278.594 24.3438C276.245 24.3438 274.363 24.7842 272.949 25.665C271.534 26.5192 270.826 28.0407 270.826 30.2295V48.127C270.826 50.3158 271.494 51.8506 272.828 52.7314C274.163 53.5856 276.085 54.0127 278.594 54.0127Z" fill="#CCB1ED" fill-opacity="0.87"/>
<path d="M306.541 58.2168L308.743 50.8096C311.039 51.7972 313.441 52.5846 315.95 53.1719C318.486 53.7324 320.809 54.0127 322.917 54.0127C324.893 54.0127 326.361 53.5456 327.322 52.6113C328.283 51.6504 328.763 50.3424 328.763 48.6875C328.763 47.4329 328.483 46.4587 327.922 45.7646C327.388 45.0439 326.454 44.4701 325.119 44.043L315.67 41.0801C312.28 40.0124 309.945 38.4375 308.663 36.3555C307.409 34.2734 306.782 31.791 306.782 28.9082C306.782 24.7975 308.223 21.7412 311.106 19.7393C314.015 17.7373 317.726 16.7363 322.237 16.7363C325.92 16.7363 329.043 17.1234 331.606 17.8975C334.168 18.6715 336.224 19.499 337.772 20.3799L335.209 27.1465C334.382 26.6927 333.287 26.2523 331.926 25.8252C330.565 25.3981 329.11 25.0511 327.562 24.7842C326.04 24.4906 324.599 24.3438 323.238 24.3438C320.942 24.3438 319.367 24.7441 318.513 25.5449C317.659 26.3457 317.232 27.4535 317.232 28.8682C317.232 29.7757 317.445 30.5765 317.872 31.2705C318.299 31.9378 319.06 32.445 320.155 32.792L329.043 35.5947C331.472 36.3421 333.381 37.3031 334.769 38.4775C336.184 39.6253 337.198 41.0267 337.812 42.6816C338.426 44.3366 338.733 46.2852 338.733 48.5273C338.733 50.9297 338.159 53.1185 337.011 55.0938C335.89 57.069 334.182 58.6439 331.886 59.8184C329.617 60.9928 326.761 61.5801 323.318 61.5801C319.687 61.5801 316.538 61.2998 313.868 60.7393C311.226 60.2054 308.783 59.3646 306.541 58.2168Z" fill="#CCB1ED" fill-opacity="0.87"/>
<path d="M346.34 58.2168L348.542 50.8096C350.838 51.7972 353.24 52.5846 355.749 53.1719C358.285 53.7324 360.607 54.0127 362.716 54.0127C364.691 54.0127 366.159 53.5456 367.12 52.6113C368.081 51.6504 368.562 50.3424 368.562 48.6875C368.562 47.4329 368.282 46.4587 367.721 45.7646C367.187 45.0439 366.253 44.4701 364.918 44.043L355.469 41.0801C352.079 40.0124 349.743 38.4375 348.462 36.3555C347.208 34.2734 346.58 31.791 346.58 28.9082C346.58 24.7975 348.022 21.7412 350.905 19.7393C353.814 17.7373 357.524 16.7363 362.035 16.7363C365.719 16.7363 368.842 17.1234 371.405 17.8975C373.967 18.6715 376.022 19.499 377.571 20.3799L375.008 27.1465C374.181 26.6927 373.086 26.2523 371.725 25.8252C370.364 25.3981 368.909 25.0511 367.361 24.7842C365.839 24.4906 364.398 24.3438 363.036 24.3438C360.741 24.3438 359.166 24.7441 358.312 25.5449C357.458 26.3457 357.031 27.4535 357.031 28.8682C357.031 29.7757 357.244 30.5765 357.671 31.2705C358.098 31.9378 358.859 32.445 359.953 32.792L368.842 35.5947C371.271 36.3421 373.18 37.3031 374.568 38.4775C375.982 39.6253 376.997 41.0267 377.611 42.6816C378.225 44.3366 378.532 46.2852 378.532 48.5273C378.532 50.9297 377.958 53.1185 376.81 55.0938C375.689 57.069 373.98 58.6439 371.685 59.8184C369.416 60.9928 366.56 61.5801 363.116 61.5801C359.486 61.5801 356.337 61.2998 353.667 60.7393C351.025 60.2054 348.582 59.3646 346.34 58.2168Z" fill="#CCB1ED" fill-opacity="0.87"/>
<path d="M383.657 17.6572H393.826L401.954 50.249L400.993 50.209L410.523 17.6572H419.371L429.181 50.5693L428.26 50.6094L435.827 17.6572H445.957L434.506 60.6592H423.856L414.527 29.2686H415.568L405.878 60.6592H395.548L383.657 17.6572Z" fill="#CCB1ED" fill-opacity="0.87"/>
<path d="M471.422 61.5801C466.911 61.5801 463.281 61.0195 460.532 59.8984C457.809 58.7507 455.834 57.1357 454.606 55.0537C453.378 52.9717 452.764 50.5026 452.764 47.6465V30.71C452.764 27.7738 453.498 25.2646 454.966 23.1826C456.434 21.1006 458.556 19.5124 461.332 18.418C464.135 17.2969 467.498 16.7363 471.422 16.7363C475.346 16.7363 478.696 17.2969 481.472 18.418C484.248 19.5124 486.37 21.1006 487.838 23.1826C489.333 25.2646 490.08 27.7738 490.08 30.71V47.6465C490.08 50.4759 489.493 52.945 488.319 55.0537C487.144 57.1357 485.196 58.7507 482.473 59.8984C479.777 61.0195 476.093 61.5801 471.422 61.5801ZM471.422 54.0127C473.744 54.0127 475.613 53.5856 477.028 52.7314C478.469 51.8506 479.19 50.3158 479.19 48.127V30.2295C479.19 28.0407 478.509 26.5192 477.148 25.665C475.786 24.7842 473.878 24.3438 471.422 24.3438C469.073 24.3438 467.191 24.7842 465.777 25.665C464.362 26.5192 463.655 28.0407 463.655 30.2295V48.127C463.655 50.3158 464.322 51.8506 465.657 52.7314C466.991 53.5856 468.913 54.0127 471.422 54.0127Z" fill="#CCB1ED" fill-opacity="0.87"/>
<path d="M501.451 17.6572H512.342V22.7822C512.983 21.6611 514.104 20.6735 515.705 19.8193C517.334 18.9385 519.189 18.2578 521.271 17.7773C523.353 17.2702 525.435 17.0166 527.517 17.0166L527.277 26.2656C525.889 26.3457 524.38 26.5192 522.752 26.7861C521.124 27.0531 519.549 27.4134 518.028 27.8672C516.533 28.321 515.265 28.8815 514.224 29.5488C513.183 30.2161 512.556 30.9769 512.342 31.8311V60.6592H501.451V17.6572Z" fill="#CCB1ED" fill-opacity="0.87"/>
<path d="M533.323 47.6865V30.5098C533.323 26.5326 534.724 23.2493 537.527 20.6602C540.356 18.0443 544.907 16.7363 551.18 16.7363C552.408 16.7363 553.729 16.8831 555.144 17.1768C556.585 17.4437 557.933 17.804 559.188 18.2578V0H570.078V60.6592H562.711L561.55 58.1367C560.162 59.1243 558.507 59.9518 556.585 60.6191C554.69 61.2598 552.635 61.5801 550.419 61.5801C546.549 61.5801 543.346 61.0195 540.81 59.8984C538.274 58.7773 536.392 57.1891 535.164 55.1338C533.936 53.0518 533.323 50.5693 533.323 47.6865ZM559.188 52.2109V25.8252C558.467 25.4782 557.479 25.1445 556.225 24.8242C554.997 24.5039 553.622 24.3438 552.101 24.3438C549.618 24.3438 547.683 24.7842 546.295 25.665C544.907 26.5459 544.213 28.0807 544.213 30.2695V47.8467C544.213 50.0355 544.854 51.597 546.135 52.5312C547.443 53.4655 549.298 53.9326 551.7 53.9326C553.195 53.9326 554.61 53.7725 555.945 53.4521C557.279 53.1318 558.36 52.7181 559.188 52.2109Z" fill="#CCB1ED" fill-opacity="0.87"/>
<path d="M164.803 132.659L184.262 73.5615H200.037L219.737 132.659H207.124L191.909 80.6885H192.95L177.215 132.659H164.803ZM176.054 121.408L178.416 112.199H206.203L208.486 121.408H176.054Z" fill="#CCB1ED" fill-opacity="0.87"/>
<path d="M228.946 89.6572H239.836V94.7822C240.477 93.6611 241.598 92.6735 243.199 91.8193C244.828 90.9385 246.683 90.2578 248.765 89.7773C250.847 89.2702 252.929 89.0166 255.011 89.0166L254.771 98.2656C253.383 98.3457 251.875 98.5192 250.246 98.7861C248.618 99.0531 247.043 99.4134 245.522 99.8672C244.027 100.321 242.759 100.882 241.718 101.549C240.677 102.216 240.05 102.977 239.836 103.831V132.659H228.946V89.6572Z" fill="#CCB1ED" fill-opacity="0.87"/>
<path d="M260.817 119.206V102.43C260.817 98.0521 262.472 94.6755 265.782 92.2998C269.118 89.9242 273.576 88.7363 279.155 88.7363C285.774 88.7363 290.472 90.0042 293.248 92.54C296.051 95.0758 297.452 98.5059 297.452 102.83V113.24H271.707V120.247C271.707 122.783 272.361 124.384 273.669 125.052C274.977 125.692 276.926 126.013 279.515 126.013C281.597 126.013 283.199 125.839 284.32 125.492C285.441 125.118 286.215 124.465 286.642 123.53C287.096 122.569 287.323 121.208 287.323 119.446H297.412C297.412 122.996 296.745 125.799 295.41 127.854C294.102 129.91 292.101 131.378 289.405 132.259C286.735 133.14 283.372 133.58 279.315 133.58C275.818 133.58 272.668 133.153 269.866 132.299C267.063 131.418 264.847 129.937 263.219 127.854C261.617 125.772 260.817 122.89 260.817 119.206ZM287.162 106.594V101.549C287.162 99.9473 286.815 98.7861 286.121 98.0654C285.454 97.318 284.533 96.8509 283.359 96.6641C282.211 96.4505 280.903 96.3438 279.435 96.3438C277.246 96.3438 275.404 96.6774 273.909 97.3447C272.441 97.9854 271.707 99.4535 271.707 101.749V106.594H287.162Z" fill="#CCB1ED" fill-opacity="0.87"/>
<path d="M308.303 89.6572H319.194V93.4609C320.849 92.0462 322.677 90.8984 324.679 90.0176C326.681 89.1367 329.243 88.6963 332.366 88.6963C335.596 88.6963 338.212 89.2969 340.214 90.498C342.216 91.6725 343.684 93.2474 344.618 95.2227C345.553 97.1979 346.02 99.4001 346.02 101.829V132.659H335.129V102.43C335.129 100.908 334.729 99.7471 333.928 98.9463C333.154 98.1455 332.18 97.5983 331.005 97.3047C329.857 97.0111 328.71 96.8643 327.562 96.8643C326.254 96.8643 324.959 97.1045 323.678 97.585C322.397 98.0654 321.329 98.7728 320.475 99.707C319.621 100.641 319.194 101.816 319.194 103.23V132.659H308.303V89.6572Z" fill="#CCB1ED" fill-opacity="0.87"/>
<path d="M369.042 133.58C366.587 133.58 364.424 133.1 362.556 132.139C360.687 131.178 359.219 129.816 358.152 128.055C357.111 126.293 356.59 124.224 356.59 121.849C356.59 119.82 357.004 118.018 357.831 116.443C358.659 114.868 360.167 113.414 362.356 112.079C364.545 110.718 367.681 109.396 371.765 108.115C374.007 107.395 375.849 106.727 377.29 106.113C378.732 105.499 379.799 104.832 380.493 104.111C381.187 103.391 381.534 102.536 381.534 101.549C381.534 100.401 381.308 99.4401 380.854 98.666C380.4 97.8919 379.679 97.318 378.692 96.9443C377.704 96.5439 376.396 96.3438 374.768 96.3438C372.953 96.3438 371.565 96.584 370.604 97.0645C369.643 97.5449 368.976 98.2122 368.602 99.0664C368.255 99.9206 368.081 100.908 368.081 102.029V103.711H357.871V102.43C357.871 98.2656 359.259 94.9424 362.035 92.46C364.811 89.9775 369.136 88.7363 375.008 88.7363C379.306 88.7363 382.709 89.3369 385.218 90.5381C387.727 91.7393 389.529 93.4342 390.623 95.623C391.718 97.7852 392.265 100.348 392.265 103.311V120.327C392.265 122.276 392.505 123.557 392.986 124.171C393.493 124.758 394.414 125.052 395.748 125.052L395.308 132.979H393.026C390.036 132.979 387.714 132.566 386.059 131.738C384.404 130.911 383.189 129.63 382.415 127.895C381.641 128.909 380.6 129.856 379.292 130.737C378.011 131.591 376.503 132.272 374.768 132.779C373.06 133.313 371.151 133.58 369.042 133.58ZM372.686 126.333C373.567 126.333 374.568 126.173 375.689 125.853C376.81 125.506 377.891 124.998 378.932 124.331C380 123.664 380.867 122.81 381.534 121.769V110.878C380.814 111.465 379.666 112.119 378.091 112.84C376.516 113.534 374.821 114.215 373.006 114.882C370.63 115.763 369.069 116.737 368.322 117.805C367.574 118.872 367.2 120.02 367.2 121.248C367.2 122.983 367.708 124.264 368.722 125.092C369.736 125.919 371.058 126.333 372.686 126.333Z" fill="#CCB1ED" fill-opacity="0.87"/>
<path d="M4.85781 134.632L1.5248 136.525C0.652726 137.02 -0.316841 136.05 0.178119 135.178L4.19765 128.094L4.85781 134.632Z" fill="#CCB1ED" fill-opacity="0.87"/>
<path d="M133.426 135.178C133.921 136.05 132.951 137.019 132.079 136.525L128.065 134.245L131.147 131.162L133.426 135.178Z" fill="#CCB1ED" fill-opacity="0.87"/>
<path d="M16.5678 114.541L22.1547 120.13L24.2494 123.623L6.73671 133.567L5.8832 125.124L13.0756 112.446L16.5678 114.541Z" fill="#CCB1ED" fill-opacity="0.87"/>
<path d="M130.136 129.38L126.283 133.235L109.354 123.622C112.105 119.036 115.943 115.197 120.528 112.446L130.136 129.38Z" fill="#CCB1ED" fill-opacity="0.87"/>
<path fill-rule="evenodd" clip-rule="evenodd" d="M75.8578 129.851H71.3012L70.1107 125.784H61.725L60.4945 129.851H56.0092L63.0404 108.49H68.7406L75.8578 129.851ZM62.7328 122.456H69.1371L65.9877 111.699L62.7328 122.456Z" fill="#CCB1ED" fill-opacity="0.87"/>
<path d="M118.6 110.517C114.015 113.269 110.177 117.108 107.426 121.695L89.1234 103.386L107.759 99.6731L118.6 110.517Z" fill="#CCB1ED" fill-opacity="0.87"/>
<path d="M113.471 17.6067L119.058 23.1945L121.154 26.6877L77.975 69.8791L90.433 82.341L71.7982 86.0549L66.8012 81.0568L26.1781 121.694L24.0834 118.201L18.4965 112.613L15.0043 110.517L55.6273 69.8791L22.2269 36.468L21.2973 36.7561C20.5696 36.9812 19.8682 37.2756 19.2016 37.633L47.3685 65.8078L44.4935 66.5266C42.8108 66.9473 41.0306 66.4546 39.8041 65.2277L14.5453 39.9611C12.617 38.0321 12.617 34.9038 14.5453 32.9748L16.641 30.8791L12.4506 26.6877L23.6244 15.511L66.8012 58.7024L109.98 15.511L113.471 17.6067Z" fill="#CCB1ED" fill-opacity="0.87"/>
<path d="M104.4 96.3127L85.765 100.026L82.14 96.4006L100.776 92.6877L104.4 96.3127Z" fill="#CCB1ED" fill-opacity="0.87"/>
<path d="M97.4164 89.3274L78.7816 93.0402L75.1566 89.4143L93.7924 85.7024L97.4164 89.3274Z" fill="#CCB1ED" fill-opacity="0.87"/>
<path d="M14.9252 61.6965C16.7477 61.6965 18.2136 61.8838 19.3227 62.26C20.4414 62.6266 21.2908 63.1481 21.8695 63.8234C22.4481 64.4987 22.8389 65.2947 23.0414 66.2111C23.2439 67.118 23.3451 68.1121 23.3451 69.1926V69.4524L19.1352 69.9445V68.8596C19.1352 67.8564 19.0099 67.0844 18.7592 66.5442C18.5084 65.9942 18.0787 65.6128 17.4711 65.4006C16.8635 65.1788 16.0149 65.0676 14.9252 65.0676C13.8645 65.0676 12.9867 65.1738 12.2924 65.3859C11.6077 65.5885 11.0958 65.96 10.7582 66.5002C10.4206 67.0308 10.2523 67.7886 10.2523 68.7727V76.8479C10.2523 77.8222 10.4207 78.5701 10.7582 79.091C11.0958 79.6024 11.6076 79.9547 12.2924 80.1477C12.9867 80.3309 13.8695 80.4221 14.9398 80.4221C16.0295 80.4221 16.8782 80.3309 17.4857 80.1477C18.0934 79.9547 18.5181 79.5974 18.7592 79.0764C19.0099 78.5458 19.1352 77.7738 19.1352 76.7609V76.0813H23.3451V76.4719C23.3451 77.5233 23.2479 78.4926 23.0551 79.3801C22.8622 80.2677 22.4815 81.0445 21.9125 81.7102C21.3435 82.3662 20.4999 82.8777 19.3812 83.2443C18.2625 83.611 16.7769 83.7941 14.9252 83.7942C13.0252 83.7942 11.4816 83.611 10.2953 83.2443C9.11891 82.8681 8.21707 82.3474 7.59023 81.6818C6.96337 81.0162 6.5346 80.2343 6.30312 79.3371C6.07165 78.4399 5.95546 77.4649 5.95546 76.4133V69.2795C5.95546 68.199 6.06664 67.2 6.28847 66.2834C6.51995 65.3573 6.94372 64.5514 7.56093 63.8664C8.18783 63.1814 9.09534 62.6509 10.2816 62.2746C11.4679 61.8888 13.0158 61.6965 14.9252 61.6965Z" fill="#CCB1ED" fill-opacity="0.87"/>
<path fill-rule="evenodd" clip-rule="evenodd" d="M118.361 61.0695C120.424 61.0696 122.025 61.4029 123.163 62.0686C124.301 62.7245 125.097 63.6168 125.55 64.7453C126.003 65.8644 126.23 67.1238 126.23 68.5227V75.0783C126.23 76.4966 125.989 77.7608 125.507 78.8703C125.035 79.9797 124.229 80.8527 123.091 81.4895C121.953 82.1166 120.38 82.4299 118.374 82.4299H109.101V61.0695H118.361ZM113.398 79.0871H117.998C119.011 79.0871 119.802 78.967 120.371 78.7258C120.94 78.475 121.34 78.0934 121.572 77.5822C121.813 77.0709 121.934 76.4193 121.934 75.6281V67.9582C121.934 67.1865 121.813 66.5397 121.572 66.0188C121.331 65.4883 120.921 65.0877 120.342 64.8176C119.773 64.5475 118.992 64.4133 117.998 64.4133H113.398V79.0871Z" fill="#CCB1ED" fill-opacity="0.87"/>
<path d="M60.4682 27.4367L64.2152 12.6613H67.8461L72.1283 27.2776L75.601 12.6613H79.724L74.1976 34.0217H70.5951L66.1107 18.7824L62.0014 34.0217H58.1537L52.6127 12.6613H56.7787L60.4682 27.4367Z" fill="#CCB1ED" fill-opacity="0.87"/>
<path d="M9.65761 8.52462C11.586 6.59596 14.7127 6.5958 16.641 8.52462L21.5297 13.4152L10.3559 24.592L5.46718 19.7024C3.53874 17.7733 3.53874 14.6451 5.46718 12.716L9.65761 8.52462Z" fill="#CCB1ED" fill-opacity="0.87"/>
<path d="M116.963 14.1135L122.55 19.7024L124.645 23.1955L123.248 24.592L121.037 21.216L115.45 15.6272L112.075 13.4152L113.471 12.0178L116.963 14.1135Z" fill="#CCB1ED" fill-opacity="0.87"/>
<path d="M119.756 11.3195L125.343 16.9084L127.438 20.4006L126.041 21.7981L123.947 18.3049L118.36 12.717L114.868 10.6203L116.265 9.22384L119.756 11.3195Z" fill="#CCB1ED" fill-opacity="0.87"/>
<path d="M126.041 2.23751C126.813 1.466 128.064 1.46593 128.835 2.23751L134.421 7.82638C135.193 8.598 135.193 9.8487 134.421 10.6203L130.681 14.3615C131.058 15.7236 130.94 16.898 130.232 17.6067L128.835 19.0041L126.74 15.511L121.153 9.92208L117.662 7.82638L119.058 6.42892C119.766 5.7206 120.94 5.60217 122.301 5.97872L126.041 2.23751Z" fill="#CCB1ED" fill-opacity="0.87"/>
<path d="M3.37245 3.63497C4.1438 2.86355 5.39409 2.86352 6.16542 3.63497L8.95937 6.42892L3.37245 12.0178L0.578509 9.22384C-0.192822 8.45221 -0.192851 7.20053 0.578509 6.42892L3.37245 3.63497Z" fill="#CCB1ED" fill-opacity="0.87"/>
</svg>
